<mxfile host="app.diagrams.net" modified="2023-09-27T04:32:51.240Z" agent="Mozilla/5.0 (Macintosh; Intel Mac OS X 10_15_7) AppleWebKit/605.1.15 (KHTML, like Gecko) Version/16.6 Safari/605.1.15" etag="aijpJHAD4t4zBDtS_JcX" version="21.8.2" type="github">
  <diagram name="Page-1" id="5cpe8zlAEIb6wCCGhhDx">
    <mxGraphModel dx="1194" dy="1897" grid="1" gridSize="10" guides="1" tooltips="1" connect="1" arrows="1" fold="1" page="1" pageScale="1" pageWidth="850" pageHeight="1100" math="0" shadow="0">
      <root>
        <mxCell id="0" />
        <mxCell id="1" parent="0" />
        <mxCell id="R_Nr2ugUmYfzpMVr9YAU-3" value="" style="edgeStyle=orthogonalEdgeStyle;rounded=0;orthogonalLoop=1;jettySize=auto;html=1;" edge="1" parent="1" source="R_Nr2ugUmYfzpMVr9YAU-1" target="R_Nr2ugUmYfzpMVr9YAU-2">
          <mxGeometry relative="1" as="geometry" />
        </mxCell>
        <mxCell id="R_Nr2ugUmYfzpMVr9YAU-1" value="" style="shape=actor;whiteSpace=wrap;html=1;" vertex="1" parent="1">
          <mxGeometry x="40" y="90" width="40" height="60" as="geometry" />
        </mxCell>
        <mxCell id="R_Nr2ugUmYfzpMVr9YAU-9" value="" style="edgeStyle=orthogonalEdgeStyle;rounded=0;orthogonalLoop=1;jettySize=auto;html=1;" edge="1" parent="1" source="R_Nr2ugUmYfzpMVr9YAU-2" target="R_Nr2ugUmYfzpMVr9YAU-8">
          <mxGeometry relative="1" as="geometry" />
        </mxCell>
        <mxCell id="R_Nr2ugUmYfzpMVr9YAU-10" value="" style="edgeStyle=orthogonalEdgeStyle;rounded=0;orthogonalLoop=1;jettySize=auto;html=1;" edge="1" parent="1" source="R_Nr2ugUmYfzpMVr9YAU-2" target="R_Nr2ugUmYfzpMVr9YAU-8">
          <mxGeometry relative="1" as="geometry" />
        </mxCell>
        <mxCell id="R_Nr2ugUmYfzpMVr9YAU-14" value="" style="edgeStyle=orthogonalEdgeStyle;rounded=0;orthogonalLoop=1;jettySize=auto;html=1;" edge="1" parent="1" source="R_Nr2ugUmYfzpMVr9YAU-2" target="R_Nr2ugUmYfzpMVr9YAU-13">
          <mxGeometry relative="1" as="geometry" />
        </mxCell>
        <mxCell id="R_Nr2ugUmYfzpMVr9YAU-2" value="LB" style="whiteSpace=wrap;html=1;" vertex="1" parent="1">
          <mxGeometry x="130" y="40" width="30" height="160" as="geometry" />
        </mxCell>
        <mxCell id="R_Nr2ugUmYfzpMVr9YAU-8" value="LB&lt;br&gt;R1" style="whiteSpace=wrap;html=1;" vertex="1" parent="1">
          <mxGeometry x="256" y="-110" width="30" height="160" as="geometry" />
        </mxCell>
        <mxCell id="R_Nr2ugUmYfzpMVr9YAU-13" value="LB&lt;br&gt;R2" style="whiteSpace=wrap;html=1;" vertex="1" parent="1">
          <mxGeometry x="256" y="190" width="30" height="160" as="geometry" />
        </mxCell>
      </root>
    </mxGraphModel>
  </diagram>
</mxfile>
